<svg version="1.2" xmlns="http://www.w3.org/2000/svg" viewBox="0 0 471 423" width="471" height="423"><style>.a{fill:#184c2e}</style><path fill-rule="evenodd" class="a" d="m-209.1 197.4l-1.5 14-1.5 14.1-1.5 14.2-1.3 14.3-1.1 14.4-0.7 14.3-0.4 14.3 0.3 14.1 0.8 13.9 1.6 13.7 2.5 13.5 3.4 13.1 4.4 12.8 5.6 12.3 6.8 11.8 8.2 11.3 9.6 10.8 11.2 10.1-13.9-5.1-14.5-5.5-14.9-5.8-15.4-6.1-15.6-6.5-15.7-7-15.8-7.3-15.7-7.9-15.4-8.3-15.1-8.8-14.7-9.3-14.1-9.9-13.4-10.5-12.6-11-11.7-11.7-10.6-12.3-9.4-13-8.2-13.6 21.8-6 11.1-3.2 11.2-3.3 11.3-3.5 11.3-3.6 11.4-3.8 11.4-3.9 11.4-4.1 11.3-4.4 11.4-4.4 11.3-4.7 11.2-4.9 11.1-5.1 11-5.3 10.8-5.5 10.7-5.7zm6.6-116.7l-5.5 82-15.5 8-16.1 8.4-16.6 8.4-17.1 8.3-17.5 8.1-17.8 7.8-18.1 7.1-18.2 6.5-18.4 5.5-18.5 4.5-18.5 3.3-18.5 2-18.3 0.4-18.1-1.3-17.9-3.2-17.5-5.2-17.2-7.3-16.8-9.8 18.3-4.6 17.9-4.6 17.6-4.6 17.3-4.9 17.1-5 17-5.2 16.9-5.6 16.9-5.9 16.9-6.4 17.1-6.9 17.3-7.4 17.5-8 17.8-8.7 18.3-9.4 18.7-10.3 19.2-11.1 19.8-11.9zm0.1-83.8l-0.4 62.6-18.8 8.3-20.2 9.2-21.5 9.9-22.5 10.3-23.5 10.5-24.4 10.3-25.1 9.9-25.7 9.3-26.1 8.3-26.5 7.1-26.7 5.7-26.7 3.9-26.7 1.9-26.4-0.3-26.2-2.9-25.7-5.8-25.1-8.8-24.4-12.1 25.4-3.1 25.2-3.5 25-4.1 25-4.5 24.8-5 24.8-5.5 24.6-6 24.6-6.6 24.4-7.2 24.5-7.7 24.3-8.3 24.4-8.9 24.3-9.5 24.2-10.2 24.3-10.8 24.3-11.4 24.2-12.2zm2.3-21.5l-34.5 17.6-35.6 16.3-36.5 15-37 13.5-37.3 12-37.3 10.5-36.9 8.8-36.4 7.1-35.5 5.3-34.4 3.3-32.8 1.5-31.2-0.7-29.1-2.7-26.8-4.9-24.3-7.2-21.3-9.5-18.2-11.9-14.7-14.5 20.8 0.1 21.1 0.2h21.5l22-0.2 22.6-0.6 23.2-1.2 24-1.9 25-2.6 25.8-3.7 27-4.8 28.2-6.1 29.4-7.5 30.8-9.1 32.3-10.8 33.8-12.6 35.6-14.7 37.3-16.8 39.2-19.1 3.1 1.4 3.5 1.9 3.7 2.4 4 2.7 4.1 3.1 4.2 3.3 4.2 3.5 4.2 3.6 4.2 3.8 4 3.7 3.8 3.7 3.6 3.5 3.4 3.4 2.9 3.1 2.6 2.8 2.1 2.4 1.6 2.1zm60.6 66.1l-18.8-35.6-22.1-31.2-25.3-27.2-28.3-23.5-31.1-20.2-33.5-17.2-35.7-14.5-37.8-12.1-39.6-10-41-8.3-42.4-6.9-43.5-5.8-44.3-5.1-44.9-4.6-45.2-4.4-45.4-4.7-45.2-5.2-44.9-6.1-44.4-7.2-43.5-8.7-42.4-10.6-41.1-12.6-39.6-15.2-37.9-17.9-35.8-21-33.6-24.4-31.1-28.2-28.4-32.3-25.5-36.7-22.3-41.4-18.8-46.4 32.4 30 35.8 26.9 38.7 24.1 41.4 21.4 43.7 19.1 45.9 16.9 47.5 15 49 13.3 50.1 11.8 50.9 10.7 51.4 9.6 51.6 8.9 51.4 8.3 51 8.1 50.3 8 49.2 8.2 47.8 8.6 46.1 9.3 44.1 10.1 41.9 11.2 39.2 12.6 36.2 14.1 33 15.9 29.5 18 25.6 20.3 21.4 22.7 17 25.5 12.1 28.5 7 31.7 1.6 35.1-4.2 38.7-10.2 42.7zm-224.9-165.2l-34.5 7.4-38.3 6.5-41.5 5.6-44.2 4.5-46.2 3.2-47.6 1.8-48.6 0.1-48.8-1.7-48.5-3.7-47.7-5.9-46.2-8.3-44.2-10.8-41.5-13.5-38.4-16.4-34.5-19.5-30.2-22.8-25.2-26.1-19.7-29.8 22.2 7.7 21.9 7.7 21.8 7.8 21.7 7.8 22 7.7 22.4 7.5 23 7.2 23.9 6.8 24.9 6.4 26.2 5.9 27.7 5.4 29.3 4.6 31.2 3.9 33.3 3 35.5 2.1 38 1.2h40.7l43.6-1.1 13.2 1.8 13.8 1.9 14.1 2 14.5 2.1 14.6 2.1 29.2 4.4 14.3 2.3 14 2.2 13.5 2.3 12.9 2.3 12.2 2.2 11.3 2.2 10.3 2.1 9.1 2.1 8 2.1 6.5 1.9zm94.5 41.1l-55.2 21.6-54.6 17.9-53.6 14.2-52.5 10.9-51.1 7.7-49.4 4.7-47.5 2-45.3-0.7-42.8-3-40.1-5.3-37.1-7.2-33.9-9.1-30.4-10.6-26.6-12.1-22.6-13.2-18.3-14.3-13.8-15.1-9-15.7 30 9.5 31.6 7.9 32.9 6.6 34.1 5.2 35 3.8 35.8 2.6 36.3 1.4 36.7 0.3 36.8-0.8 36.8-1.8 36.6-2.7 36.1-3.6 35.4-4.4 34.6-5.2 33.6-5.8 32.4-6.4 30.9-7 29.2-7.5 2.9 1.1 3.3 1.2 3.6 1.4 4 1.6 4.3 1.6 4.4 1.8 4.6 1.9 9.2 4 4.6 2.2 4.5 2.2 4.4 2.2 4.1 2.3 3.8 2.3 3.5 2.4 3.1 2.3 2.6 2.4zm215.8 544l-28.3-4.7-24.7-7-21.2-9.1-18-11.2-15.1-13.1-12.3-14.8-9.8-16.4-7.6-18-5.5-19.3-3.7-20.6-2.1-21.6-0.7-22.7 0.3-23.5 1.3-24.2 2-24.8 2.4-25.2 2.6-25.6 2.6-25.8 2.4-25.8 1.8-25.8 1.2-25.5 0.2-25.3-0.9-24.7-2.3-24.2 14 16.4 11.2 16.6 8.7 16.8 6.4 16.9 4.4 17.1 2.8 17.4 1.4 17.5 0.3 17.9-0.5 18.2-1.1 18.5-1.3 18.8-1.3 19.2-1 19.6-0.4 20 0.5 20.4 1.7 20.9 3.1 21.4 4.9 21.9 6.9 22.4 9.2 23 11.7 23.6 14.7 24.1 17.8 24.8zm-77.9-277.1l2.5-25.3 4.2-24.8 5.8-24.2 7.4-23.5 8.8-22.9 10.2-22.1 11.6-21.4 12.9-20.4 14.1-19.6 15.4-18.6 16.4-17.5 17.6-16.5 18.6-15.4 19.5-14.1 20.5-12.9 21.3-11.6 22.2-10.2 22.9-8.8 23.5-7.3 24.2-5.8 24.8-4.3 25.3-2.5 25.8-0.9 25.7 0.9 25.3 2.5 24.8 4.3 24.2 5.8 23.6 7.3 22.8 8.8 22.2 10.2 21.3 11.6 20.5 12.9 19.5 14.1 18.6 15.4 17.6 16.5 16.5 17.5 15.3 18.6 14.1 19.6 12.9 20.4 11.6 21.4 10.2 22.1 8.9 22.9 7.3 23.5 5.8 24.2 4.2 24.8 2.6 25.3 0.8 25.8-0.8 25.7-2.6 25.3-4.2 24.8-5.8 24.2-7.3 23.6-8.9 22.9-10.2 22.1-11.6 21.3-12.9 20.5-14.1 19.5-15.3 18.6-16.5 17.6-17.6 16.5-18.6 15.3-19.5 14.2-20.5 12.9-21.3 11.5-22.2 10.3-22.8 8.8-23.6 7.3-24.2 5.8-24.8 4.2-25.3 2.6-25.7 0.9-25.8-0.9-25.3-2.6-24.8-4.2-24.2-5.8-23.5-7.3-22.9-8.8-22.2-10.3-21.3-11.5-20.5-12.9-19.5-14.2-18.6-15.3-17.6-16.5-16.4-17.6-15.4-18.6-14.1-19.5-12.9-20.5-11.6-21.3-10.2-22.1-8.8-22.9-7.4-23.6-5.8-24.2-4.2-24.8-2.5-25.3-0.9-25.7zm45.5 25.7l0.8 22.6 2.3 22.2 3.6 21.7 5.1 21.2 6.5 20.7 7.7 20.1 8.9 19.4 10.2 18.7 11.3 17.9 12.4 17.1 13.5 16.3 14.4 15.4 15.4 14.5 16.3 13.4 17.1 12.4 18 11.3 18.7 10.2 19.4 9 20 7.7 20.7 6.4 21.2 5.1 21.7 3.7 22.2 2.2 22.6 0.8 22.6-0.8 22.2-2.2 21.7-3.7 21.2-5.1 20.6-6.4 20.1-7.7 19.4-9 18.7-10.2 17.9-11.3 17.2-12.4 16.3-13.4 15.4-14.5 14.4-15.4 13.5-16.3 12.4-17.1 11.3-17.9 10.1-18.7 9-19.4 7.7-20.1 6.4-20.7 5.1-21.2 3.7-21.7 2.3-22.2 0.7-22.6-0.7-22.5-2.3-22.2-3.7-21.7-5.1-21.3-6.4-20.6-7.7-20.1-9-19.4-10.1-18.7-11.3-17.9-12.4-17.2-13.5-16.3-14.4-15.3-15.4-14.5-16.3-13.4-17.2-12.4-17.9-11.3-18.7-10.2-19.4-9-20.1-7.7-20.6-6.4-21.2-5.1-21.7-3.7-22.2-2.2-22.6-0.8-22.6 0.8-22.2 2.2-21.7 3.7-21.2 5.1-20.7 6.4-20 7.7-19.4 9-18.7 10.2-18 11.3-17.1 12.4-16.3 13.4-15.4 14.5-14.4 15.3-13.5 16.3-12.4 17.2-11.3 17.9-10.2 18.7-8.9 19.4-7.7 20.1-6.5 20.6-5.1 21.3-3.6 21.7-2.3 22.2zm792.9-6.8l10.7 5.8 10.9 5.5 11 5.3 11.1 5.1 11.2 4.8 11.3 4.7 11.3 4.5 11.4 4.3 11.4 4.1 11.3 4 11.4 3.8 11.3 3.6 11.3 3.5 11.2 3.3 11.1 3.2 11 3 10.8 2.9-8.1 13.7-9.5 13-10.6 12.3-11.7 11.6-12.6 11.1-13.4 10.4-14.1 9.9-14.6 9.4-15.1 8.8-15.5 8.3-15.7 7.8-15.7 7.4-15.8 6.9-15.6 6.6-15.3 6.1-15 5.8-14.5 5.4-13.8 5.1 11.1-10.1 9.7-10.7 8.1-11.3 6.9-11.9 5.5-12.3 4.5-12.7 3.4-13.2 2.4-13.4 1.6-13.7 0.9-14 0.2-14.1-0.3-14.2-0.8-14.3-1.1-14.4-1.3-14.3-1.5-14.3-1.5-14.1-1.4-13.9zm3.3-109.7l19.8 12 19.3 11.1 18.7 10.2 18.2 9.4 17.9 8.7 17.5 8 17.3 7.5 17.1 6.8 16.9 6.4 16.9 5.9 16.9 5.6 17 5.3 17.1 5 17.3 4.8 17.5 4.7 17.9 4.6 18.4 4.6-16.8 9.7-17.2 7.4-17.5 5.2-17.9 3.1-18.2 1.3-18.3-0.4-18.4-1.9-18.5-3.3-18.5-4.5-18.4-5.6-18.3-6.4-18-7.2-17.9-7.7-17.4-8.1-17.1-8.4-16.6-8.4-16.1-8.3-15.5-8.1-5.5-82zm3.7-83.9l24.3 12.2 24.2 11.4 24.3 10.8 24.3 10.2 24.2 9.5 24.4 8.9 24.3 8.3 24.5 7.7 24.5 7.2 24.5 6.6 24.7 6 24.7 5.5 24.8 5 25 4.5 25 4.1 25.2 3.5 25.4 3.1-24.4 12.1-25.1 8.8-25.7 5.8-26.1 2.9-26.5 0.3-26.7-1.9-26.7-3.9-26.7-5.7-26.5-7.1-26.1-8.3-25.7-9.3-25.1-9.9-24.3-10.3-23.6-10.5-22.5-10.3-21.5-9.9-20.2-9.2-18.8-8.3-0.4-62.6zm-25.5-35.9l1.6-2 2.1-2.4 2.5-2.8 3-3.1 3.3-3.4 3.6-3.6 3.9-3.6 4-3.8 4.1-3.7 4.3-3.6 4.2-3.5 4.2-3.4 4.1-3 3.9-2.7 3.8-2.4 3.4-1.9 3.2-1.4 39.2 19.1 37.3 16.8 35.5 14.7 33.9 12.6 32.3 10.8 30.8 9.1 29.4 7.5 28.2 6 26.9 4.8 25.9 3.7 24.9 2.7 24 1.9 23.3 1.1 22.5 0.7 22 0.2 21.5-0.1 21.1-0.1 20.9-0.1-14.7 14.4-18.2 12-21.4 9.5-24.2 7.2-26.8 4.9-29.1 2.7-31.2 0.6-32.9-1.4-34.3-3.4-35.5-5.2-36.4-7.1-37-8.8-37.2-10.5-37.3-12-37-13.6-36.5-14.9-35.6-16.4-34.5-17.6zm-76.7 107.8l-10.2-42.7-4.1-38.7 1.6-35.1 7-31.7 12.1-28.5 16.9-25.5 21.4-22.7 25.6-20.3 29.5-18 33-15.9 36.3-14.2 39.2-12.5 41.8-11.2 44.1-10.2 46.2-9.2 47.8-8.6 49.2-8.2 50.2-8 51-8.1 51.5-8.3 51.6-8.9 51.4-9.7 50.9-10.6 50.1-11.8 48.9-13.3 47.6-15 45.8-16.9 43.8-19.1 41.4-21.5 38.7-24 35.7-26.9 32.4-30-18.8 46.4-22.3 41.4-25.4 36.7-28.4 32.2-31.1 28.2-33.6 24.5-35.9 21-37.8 17.9-39.6 15.2-41.2 12.6-42.4 10.6-43.5 8.7-44.3 7.2-44.9 6.1-45.3 5.2-45.3 4.6-45.3 4.5-44.9 4.6-44.3 5.1-43.4 5.8-42.4 6.9-41.1 8.3-39.6 10-37.7 12.1-35.8 14.5-33.5 17.1-31 20.2-28.3 23.6-25.4 27.2-22.1 31.2-18.7 35.5zm244.9-207.1l6.6-2 7.9-2 9.2-2.1 10.3-2.1 11.3-2.3 12.1-2.2 12.9-2.2 13.5-2.3 14-2.3 14.3-2.2 14.6-2.2 14.7-2.2 14.6-2.2 14.4-2 14.2-2 13.7-1.9 13.2-1.8 43.6 1.1 40.7-0.1 38.1-1.1 35.5-2.1 33.2-3.1 31.2-3.9 29.4-4.6 27.6-5.3 26.2-5.9 24.9-6.4 23.9-6.9 23.1-7.2 22.4-7.4 22-7.7 43.4-15.6 21.9-7.8 22.3-7.6-19.7 29.7-25.2 26.2-30.2 22.7-34.6 19.5-38.3 16.4-41.6 13.5-44.1 10.8-46.3 8.3-47.6 5.9-48.6 3.7-48.8 1.8-48.5-0.2-47.7-1.7-46.2-3.2-44.1-4.5-41.6-5.6-38.3-6.6-34.5-7.3zm-97.4 40.6l2.6-2.3 3.1-2.4 3.5-2.3 3.8-2.4 4.1-2.3 4.3-2.2 4.5-2.2 4.6-2.1 4.7-2.1 4.6-2 4.6-1.9 4.4-1.7 4.2-1.7 4-1.5 3.7-1.4 3.3-1.3 2.8-1.1 29.3 7.5 30.9 7 32.3 6.5 33.6 5.8 34.6 5.1 35.5 4.4 36.1 3.6 36.6 2.7 36.7 1.8 36.9 0.8 36.7-0.3 36.3-1.4 35.8-2.6 35-3.8 34.1-5.2 32.9-6.5 31.5-8 30.1-9.5-9 15.7-13.8 15.1-18.3 14.3-22.6 13.3-26.7 12-30.3 10.7-33.9 9-37.1 7.3-40.1 5.2-42.9 3-45.2 0.7-47.5-1.9-49.4-4.7-51.1-7.7-52.5-10.9-53.6-14.3-54.6-17.8-55.2-21.6zm-196.6 520.9l17.8-24.8 14.7-24.2 11.7-23.6 9.2-22.9 6.9-22.5 4.9-21.9 3.1-21.3 1.7-20.9 0.5-20.5-0.4-20-1-19.6-1.3-19.2-1.3-18.8-1.1-18.5-0.5-18.2 0.3-17.8 1.4-17.6 2.8-17.4 4.4-17.1 6.4-16.9 8.7-16.7 11.2-16.6 14-16.5-2.3 24.2-0.9 24.8 0.2 25.2 1.2 25.6 1.9 25.7 2.3 25.9 2.6 25.7 2.6 25.6 2.4 25.3 2 24.8 1.3 24.2 0.3 23.5-0.7 22.6-2.1 21.7-3.7 20.5-5.5 19.4-7.5 17.9-9.9 16.5-12.3 14.8-15.1 13-18 11.2-21.2 9.1-24.7 7-28.3 4.7zm-46.1-517.8l-3.4-0.5-3.5-1.2-3.5-1.8-3.5-2.3-3.6-2.7-3.8-3.1-3.9-3.3-4-3.5-4.3-3.6-4.6-3.5-4.8-3.5-13.4-8.8-13.9-8.7-14.6-8.6-15.4-8.1-16.5-7.7-17.5-7.1-18.9-6.4-20.4-5.5-22-4.6-23.7-3.4-25.7-2.3-27.8-0.9-27.7 0.9-25.7 2.3-23.8 3.4-22 4.6-20.3 5.5-18.9 6.4-17.6 7.1-16.4 7.7-15.5 8.1-14.5 8.6-13.9 8.7-13.4 8.8-4.9 3.5-4.5 3.5-4.3 3.6-4.1 3.5-3.9 3.3-3.7 3.1-3.6 2.7-3.6 2.3-3.5 1.8-3.4 1.2-3.5 0.5-3.5-0.3-3.2-1-2.8-1.7-2.4-2.3-1.9-2.9-1.7-3.3-1.4-3.6-1.1-3.9-1-4-0.8-4.1-0.8-4-0.7-3.9-0.8-3.6-64.4-280-4.2-16.9-1.9-7.9-0.4-2-0.3-2.1-0.4-2.2-0.2-2.2-0.2-2.3-0.1-2.2v-2.2l0.2-2 0.3-1.8 0.5-1.7 0.6-1.4 1.4-0.8 1.5-0.7 1.6-0.4 1.7-0.2 1.8 0.1 1.8 0.3 1.9 0.6 1.9 0.7 1.9 0.9 2 1 2.1 1.1 2.6 1.6 3.4 2 4.6 2.9 6 3.7 7.6 4.7 8.8 5.5 10 6.3 11 6.8 11.7 7.2 12.1 7.4 12.3 7.4 11.8 7.1 10.6 6.3 9 5.2 6.9 3.9 5.1 2.8 4 2.1 3.4 1.8 3.1 1.7 2.9 1.8 2.9 2 2.8 2.3 2.7 2.6 2.5 3 2.5 3.4 2.5 3.5 0.4 3.6 0.3 3.2 0.1 3-0.1 2.7-0.3 2.6-0.3 2.4-0.4 2.3-0.5 2.3-0.4 2.3-0.5 2.3-0.4 2.4-0.3 2.6-0.4 4-0.5 3.7-0.6 6.8-0.2 3.4v3.5l0.1 3.7 0.4 4 0.6 4.4 1 5 1.2 5.5 1.6 6.3 3.8 8.4 4.6 7.4 5.2 6.5 5.8 5.6 6.4 4.6 6.8 3.7 7.2 2.8 7.5 1.8 7.7 0.7 7.9-0.2 8-1.3 8-2.3 7.1-3.5 7.2-4.2 6.8-4.7 6.4-5.4 5.7-6 4.9-6.9 3.7-7.5 2.4-8.4 0.8-9.3-0.9-10.2-2.9-11.1-5-12-4.9-8.1-4.3-6.8-3.9-5.6-3.5-4.7-3.2-3.9-3-3.4-2.9-3-5.5-5.5-2.9-3-3.1-3.3-3.3-3.9-0.8-1-0.9-1-0.8-1-0.8-1.1-0.7-1-0.7-1.1-0.6-1.1-0.6-1.2-0.5-1.3-0.8-3-0.2-1.7 0.2-1.4 0.4-1.4 0.5-1.5 1.2-2.8 1.6-2.8 1.8-2.8 2.7-3.9 2.6-3.7 4.3-6.5 5.9-8.8 15.4-23.1 8.9-13.6 9.5-14.3 19.4-29.4 9.5-14.4 8.9-13.5 8.2-12.3 0.8-1.1 0.8-0.9 0.9-0.9 0.9-0.8 1-0.8 2.4-1.2 1.2-0.5 2.8-0.6 1.5-0.1 1.6-0.1 1.6 0.1 1.5 0.1 1.5 0.3 1.3 0.3 1.3 0.5 1.2 0.6 1.1 0.6 2 1.6 0.9 0.9 0.8 0.9 0.7 1.1 17.2 25.8 9.4 14.4 19.4 29.4 9.5 14.3 9 13.6 8.1 12.3 7.2 10.8 5.9 8.8 4.4 6.5 2.5 3.7 1 1.3 1.8 2.6 1.8 2.8 0.8 1.4 1.4 2.8 0.6 1.4 0.5 1.5 0.6 2.8-0.3 1.7-0.3 1.5-0.4 1.5-0.5 1.3-0.6 1.2-0.7 1.1-0.6 1.1-0.8 1-0.8 1.1-1.6 2-0.9 1-3.3 3.9-3 3.3-2.9 3-2.8 2.8-2.8 2.7-2.8 3-3 3.4-3.3 3.9-3.5 4.7-3.8 5.6-4.4 6.8-4.8 8.1-5.1 12-2.9 11.1-0.9 10.2 0.9 9.3 2.4 8.4 3.7 7.5 4.8 6.9 5.7 6 6.4 5.4 6.9 4.7 7.1 4.2 7.2 3.5 7.9 2.3 8 1.3 7.9 0.2 7.8-0.7 7.5-1.8 7.2-2.8 6.8-3.7 6.3-4.6 5.9-5.6 5.2-6.5 4.5-7.4 3.8-8.4 1.6-6.3 1.3-5.5 0.9-5 0.7-4.4 0.3-4 0.2-3.7v-3.5l-0.2-3.4-0.3-3.4-0.4-3.4-0.4-3.7-0.5-4-0.3-2.6-0.4-2.4-0.4-2.3-0.5-2.3-0.8-4.6-0.4-2.4-0.2-2.6-0.1-2.7 0.1-3 0.2-3.2 0.5-3.6 2.4-3.5 2.5-3.4 2.6-3 2.7-2.6 2.7-2.3 2.9-2 3-1.8 3.1-1.7 3.3-1.8 4-2.1 5.2-2.8 6.9-3.9 8.9-5.2 10.7-6.3 11.8-7.1 12.2-7.4 12.1-7.4 11.7-7.2 11-6.8 10-6.3 8.9-5.5 7.5-4.7 6-3.7 4.6-2.9 3.4-2 2.6-1.6 2.2-1.1 1.9-1 1.9-0.9 1.9-0.7 1.9-0.6 1.9-0.3 1.8-0.1 1.7 0.2 1.6 0.4 1.4 0.7 1.4 0.8 0.7 1.4 0.5 1.7 0.3 1.8 0.2 2v2.2l-0.1 2.2-0.2 2.3-0.6 4.4-0.4 2.1-0.4 2-1.8 7.9-4.3 16.9-64.4 280-0.7 3.6-0.8 3.9-0.7 4-0.9 4.1-1 4-1.1 3.9-1.4 3.6-1.6 3.3-2 2.9-2.3 2.3-2.8 1.7-3.3 1zm-136.9 132.8l-7.5-1.3-9.8 1.1-8.3 3.8-7 6.4-5.6 8.7-4.5 10.9-3.5 12.9-2.6 14.8-1.9 16.3-1.2 17.9-0.7 19.1-0.4 20.2-0.1 21.1 0.2 21.9 0.5 21.3 1 20.5 1.5 19.5 2.1 18 2.8 16.6 3.7 14.6 4.6 12.6 5.6 10.2 6.7 7.6 7.9 4.8 9.1 1.6 6.2-1.2 5-3.4 4-5.4 2.9-6.9 2.1-8.2 1.3-9.2 0.6-9.8 0.1-10.1-0.4-10.2-0.7-9.8-0.9-9.3-1-8.2-0.5-1-0.6-1.3-0.7-1.4-1-1.6-1.1-1.6-1.4-1.7-1.6-1.8-2-1.6-2.3-1.6-2.7-1.4-3-1.2-3.5-1.1-0.6-1.2-0.6-1.3-0.6-1.2-1.2-2.5-0.6-1.2-0.6-1.3-0.5-1.3-0.6-1.3-0.5-1.4-0.8-3 0.1-1.4 0.3-1.5 0.4-1.5 1-3 0.7-1.5 0.8-1.5 0.8-1.4 0.9-1.4 2-2.4 1-1h9l8.4 0.1h7.8l7.3 0.1 6.9 0.1h6.7l19.2 0.3 6.5 0.1 6.6 0.1 7 0.1-1 119.3 10.6 20.4-1 20.7-7 5.4-7.2 4.7-7.5 4-7.8 3.3-8.3 2.7-8.7 2.2-9.4 1.8-10 1.2-10.7 0.9-11.6 0.6-12.6 0.3-13.5 0.1-18.4-2-16.2-5.8-14.2-9.4-12.2-12.6-10.3-15.6-8.5-18.3-7-20.7-5.4-22.9-4-24.8-2.7-26.3-1.6-27.6-0.5-28.7 0.9-28.5 2.5-26.9 4.1-25.1 5.7-23.2 7.1-21.2 8.5-18.8 9.9-16.4 11.1-13.9 12.3-11 13.4-8.1 14.5-5 15.5-1.7 9.9 0.1 8.1 0.4 6.6 0.5 5.2 0.7 4.3 0.9 3.4 0.9 2.8 0.9 4.8 2 2.5 0.9 2.9 0.8 3.5 0.7 2 0.1 2.1-0.2 2.2-0.6 2.2-0.8 4.4-2 2.1-1 2-0.9 1.9-0.8 1.8-0.5 1.6-0.2 1.4 0.2 1.2 0.4 1 0.2 0.9 0.3 0.9 0.2 0.8 0.2 0.9 0.3 0.9 0.4 1 0.5 1.2 0.7 1.4 1 1.6 1.2 1.9 1.4v9.5l-0.1 10v10.4l-0.1 21.2-0.1 10.5-0.1 10v9.5l-0.1 8.7v7.7l-0.1 6.6v5.3l-2.9-0.1h-2.9l-3 0.2-6.1 0.3-3 0.2h-3l-2.8-0.1-2.7-0.4-2.5-0.7-2.3-1-2-1.5-2.9-4.1-2.4-5.7-2-6.7-2-7.4-2-7.9-2.2-8-2.6-7.7-3.3-7.1-4-6.2-5-4.9zm-373.9-37.1h104.3v28.5l-14.9 9.5v130.9h45.9v-130.9l-15.2-9.5v-28.5h102.2v28.5l-14.8 9.5v319.3l14.8 12.1v28.1h-102.2v-28.1l15.2-12.1v-144.2h-45.9v144.2l14.9 12.1v28.1h-104.3v-28.1l15-12.1v-319.3l-15-9.5zm-392.8-791.3l-2.3 2.5-3.7 5.6-4.8 7.3-10.4 10.4-11 10.4-12.4 8.9-12.6 8.5-13.6 7.6-13.6 7.4-14.2 7-14.2 6.9-14.4 7-14.3 7.1-14 7.6-14 7.7-13.3 8.7-13.2 8.9-12.1 10.4-12 10.6-10.7 12.5-10.1 12.5-5.9 10.1-5.3 10.1-4.6 11.1-4.5 11.3-3.8 12-3.7 12.2-3.1 12.6-3.1 12.7-2.8 12.8-5.4 25.8-2.6 12.8-2.9 12.5-3.3 12.2-3.7 11.8-3.7 11.5-4.1 10.8-3.8 10.8-4.3 9.9-3.8 7.7-3.5 6.6-3.3 5.7-3.6 5.2-4 5-4.7 4.7-5.2 4.3-5.2 3.5-4.7 2.2-4.4-0.5-4.8-1.6-5.6-3.7-6.1-6.2-5.5-8-4.6-9.5-3.6-10-2.4-9.7-1.2-7.2-0.2-4.8 0.3-3.8 1-3.4 1.3-3.1 1.4-2.7 1.4-2.6 1.3-2.3 1.4-2.2 1.3-1.9 1.3-1.8 1.4-1.6 1.3-1.6 1.4-1.6 1.6-1.9 1.7-2 1.2-1.7 0.9-1.4 0.6-1.4 0.6-2 0.5-2.6 0.1-2.6v-2.3l-0.3-2.5-0.4-2.8-0.3-2.7-0.2-2.6 0.1-2.7 0.6-3.2 1.3-3 1.8-2.8 4.1-4.5 3.3-6.2 2.9-6.7 2.2-5.4 2-5.1 1.4-5.2 1.2-5.2 0.8-4.5 0.8-4.8 1.5-8 1.3-6.9 1.8-6.8 1.5-6.9 1.2-6.5 0.9-6.7 0.7-7.4 0.5-7.2 0.4-7.4 0.5-8.1 0.7-8.2 0.8-8.3 1.2-8.7 1.4-9 2.2-8.6 2.6-7.6 3.3-6.7 4.1-6.4 5.4-6.9 7.1-7.9 8.2-8.8 8.1-8.8 7.1-8 5.8-7.2 4.7-6.8 3.6-6.1 2.6-5.4 1.8-5 1-5 0.4-5.4v-5.7l-0.3-6.1-0.5-6.1-2.6-12.4-1.6-6.3-1.7-6.3-1.8-6.5-1.9-6.6-1.9-7-1.9-7.1-1.6-7.6-1.6-7.7-1.2-8.4-1.1-8.4-0.4-9.2-0.5-9-0.5-5.6-0.4-4.6-0.2-3.6 0.1-3.1 0.2-2.5-0.1-1.7-0.8-0.2-1.9 2.2-2.6 4-2.8 5.2-2.7 6.1-2.4 6.9-2.2 7.9-2.2 9-2.6 11.4-3.2 14.5-4 19.2-4.6 20.2-4.9 20.5-6.5 20.5-7 20.5-9.6 19.6-10.3 19.4-14.1 17.3-14.9 16.8-19.5 13.3-20.6 12.6-25.7 7.9-24.8 6.9-10.7 1-9.3 0.4-9.7-0.3-10.5-0.5-10.9-0.9-10.5-1.8-8.8-3.5-5.6-5.2-1-6.4 2.9-6.6 5.7-5.8 6.9-4.8 6.9-4.1 6.3-4.1 5.5-4.4 4.7-4.5 4.1-4.1 3.6-3.8 7.1-7.1 3.5-3.6 6.9-7 4.1-4.4 9.8-13.6 10.1-14.5 7.9-14.9 7.6-14.9 6-15.3 5.7-15.3 4.9-15.6 4.8-15.6 4.7-15.7 4.6-15.7 5.3-15.6 5.4-15.7 6.8-15.3 7.1-15.4 9.2-14.7 9.7-14.7 12.6-13.7 13.2-13.6 16.4-12.2 15.8-11.4 5.6-3.2 4.5-2.5 4.4-1.8 4.4-1.7 4.3-1.3 4.3-1.1 4.1-0.7 4.2-0.5 4-0.2 4-0.1 7.6 0.6 7.2 1.2 3.3 0.7 3.6 0.9 5.8 1.5 6.4 0.9 9.9-5.9 10.5-6.7 12.6-8.2 12.9-8.1 13.6-6.4 13.8-6.1 14.2-4.8 14.2-4.5 14.5-3.6 14.5-3.4 14.6-2.7 14.5-2.7 14.4-2.3 14.3-2.3 14-2.3 13.8-2.3 13.3-2.6 12.7-3 12.3-3.2 11.2-3.9 10.7-3.9 9.9-3.9 8.6-3.8 7.1-3.5 5.6-3 4.2-2.4 3.4-2.1 2.9-1.9 3-2.1 3.4-2.4 3.6-2.6 3.2-2.3 2.5-1.9 4.2-3.4 2.4-2.1 2.8-2.5 3.3-2.9 3.4-2.9 3.4-3 3.4-2.8 3.6-2.5 3.5-2 3.3-1.5 3-1.1 2.8-0.7 2.7-0.4 2.4-0.3 2.3-0.2 2.1-0.1 2-0.1 2-0.2 2.1-0.2 2.6-0.4 3.3-0.7 3.9-1 3.6-1.2 3.2-1.3 3-1.4 3.1-1.6 3.2-1.8 3.3-1.9 3.5-1.8 4.5-2.1 4.5-2 5.3-2 5.5-2.1 6.1-2.2 6.3-2.1 6.9-2.2 7-2.1 7.5-2.2 7.6-2 8-2 8.2-2 16.8-3.4 8.6-1.3 8.7-1.1 8.7-0.8 8.8-0.8 8.7-0.3 8.8-0.3 8.6 0.1 8.8 0.1 9.1 0.7 9.1 0.6 9.1 1.2 9.1 1.3 8.9 1.7 8.9 1.8 8.7 2.2 8.6 2.3 8.3 2.6 8.2 2.6 8 2.6 7.9 2.5 7.4 2.5 7.3 2.6 6.6 2.6 6.7 2.8 6 2.6 6 2.8 5 2.5 4.8 2.2 3.9 1.7 3.7 1.6 2.8 0.8 2.6 0.8 1.5 0.2 1.6 0.2 1.5 0.1h1.4l1.5-0.1 1.4-0.1 1.6-0.2 1.8-0.3 1.9-0.3 2.1-0.4 2.4-0.4 2.6-0.4 2.8-0.3 3-0.3 3.2-0.3 3.5-0.2 3.7-0.1 3.9 0.1 4.3 0.2 4.6 0.4 5.3 0.7 6 1.2 7 2.2 6.8 3.4 5.2 4.6 3.2 5.2 1.1 4.9-0.8 4.2-1.4 3.7-1.9 3.1-2.3 2.4-2.5 2.1-2.4 1.9-2.3 1.8-2.3 1.9-2 2.1-1.9 2.3-1.7 2.4-1.5 2.6-1.4 2.8-1.1 3.9-0.9 5.5 0.3 5.3 1.3 5.8 1.6 6.6 1.6 7.8 1.5 8.1 1.4 8.2 1.5 8.1 1.6 8.1 1.6 8 1.6 7.9 1.7 8 3.4 15.4 1.7 7.4 1.7 7.3 1.7 7 1.6 6.9 1.6 6.4 1.5 6.3 1.5 5.7 1.4 5.7 1.3 5.1 1.2 4.9 0.7 3.3 0.7 3.2 0.3 3.4 0.4 3.4v6.7l-0.3 3.4-0.4 3.4-0.7 3.4-0.7 3.3-1.1 3.2-1.2 3.3-1.5 3.1-1.6 3.1-2 3-2.1 2.8-2.4 2.7-2.6 2.6-2.9 2.2-3.1 2.2-3.4 1.8-3.4 1.7-3.7 1.2-3.8 1-3.8 0.6-3.8 0.5h-3.8l-3.7-0.2-3.6-0.7-3.5-0.7-3.4-1.3-3.3-1.3-3.1-1.8-3-1.8-2.7-2.2-2.6-2.2-2.4-2.5-2.3-2.6-2-2.7-1.9-2.7-1.6-3-1.5-3.1-1.3-3.1-1.2-3.1-1.1-2.9-0.8-2.8-0.8-2.4-1-2.2-1.4-2.4-2.1-2.8-2.4-3.1-2.4-2.9-2.2-2.7-2.5-2.6-3-3-3.4-3.5-3.8-3.9-3.9-4.1-3.9-4.3-3.4-3.7-2.7-2.9-2.1-2.2-1.8-1.9-2.1-1.6-2.5-1.7-3.1-1.8-3.4-2-3.5-2.2-3.3-2.8-3.3-3-3.2-3.3-3.4-3.5-3.2-3.8-3.1-3.7-2.8-3.8-2.6-3.8-2.1-3.8-1.9-3.8-1.6-3.9-1.4-4-1.3-4.3-1.2-4.3-0.9-4.2-1.1-4.1-3.6-1.9-3.9-1.6-3.5-1-3.5-0.8-2.9 0.2-2.7 0.4-2.9 0.4-3.1 0.4-5.6 0.8-5.7 0.8-5.3 1.3-5.1 1.5-4.7 2-4.6 2.2-4.1 2.5-4.1 2.6-3.4 2.9-3.1 3-2.4 3.2-2.2 3.3-1.8 3.9-1.7 4.2-1.4 4.7-0.9 4 0.7 1.7 1.8 0.8 4.2 0.3 4.6 0.4 4.4 0.7 4.5 0.9 4.6 0.9 4.8 1 5.1 0.9 5.2 0.9 5.3 1.1 5.2 1.2 5.2 1.4 5.2 1.5 5 1.9 5 2 4.7 2.6 4.6 2.8 4.3 3.6 4 3.9 3.2 4.7 3 4.8 1.8 5.5 1.6 5.6 0.6 5.7 0.4 5.7-1 11.2-1.2 5.7-1.4 5.6-1.8 5.6-1.9 5.6-2.4 5.5-2.4 5.6-5.6 11.2-3.1 5.6-3.1 5.5-3.4 5.5-3.3 5.6-3.6 5.4-3.5 5.4-3.6 5.4-3.5 5.7-4.1 6.6-4.3 6.6-5.2 4.5-5.3 4.1-5.2 2.8-5.3 2.4-5.4 2-5.6 1.7-5.6 1.3-5.6 1.1-5.2 0.8-4.8 0.4-4.7 0.1h-5.4l-6.5-0.1-7.1 0.1-6.7 0.3-5.9 0.9-5.5 1.2-5.3 0.9-5.5 0.2-5.5-0.2-5.8-0.5-6.3-1.1-7.2-2-7-2.6-3.8-3.2-3.1-3.4-1.8-3.8-0.6-4 0.2-4.1 0.9-3.6 1.3-3.4 1.6-3.5 1.5-3.1 1.6-2.8 1.9-2.9 2.1-2.9 2.1-2.7 2.1-2.5 2.5-2.5 2.7-2.5 2.4-2 2-1.6 2.1-1.4 2.5-1.7 3.3-1.8 3.7-1.7 3.9-1.1 3.9-0.6 3.5-0.2 3.1 0.2 3.2 0.4 3.4 0.7 3.3 0.6 3.1 0.6 3 0.5 2.7 0.4 2.4 0.1 2.4-0.2 2.6-0.8 3-1.5 3.2-2.4 3.4-3 3.7-3.9 3.5-4 2.8-3.6 1.4-2.8-0.2-2.1-1.9-1.1-4 0.1-5.4 1.3-6.1 1.9-11.8 3.8-17.7 6-6 2-6.1 2.1-6.3 2.1-6.4 1.9-6.5 2-6.6 1.6-6.6 1.5-6.7 0.9-6.6 0.6-6.7-0.2-6.3-0.6-4.6-1.1-4-1.4-3.9-1.8-3.7-1.7-3.4 0.4-3.3 0.5-1.8 1-1.9 1-4.7 1.6-5.1 1.7-5.4 2.5-5.7 2.7-7.7 3.5-8 3.6-8.4 3.1-8.5 3.1-8.8 2.6-8.8 2.5-9.1 2.1-9.1 2-9.2 1.7-9.3 1.5-18.4 2.2-18.2 1.2-8.9 0.1h-8.8l-8.5-0.2-7.9-0.2h-6.7l-4.1 0.2zm19.6-31.9l5.5 1 6.2 0.4 7.8-0.1 8.1-0.1 8.3-0.5 8.3-0.6 8.5-1 8.4-1 8.5-1.4 8.4-1.5 8.3-1.9 8.2-1.9 8-2.3 7.8-2.3 7.5-2.7 7.4-2.7 6.9-3.1 6.7-3.1 6-3.3 5.1-3.5-3.4-3.5-4.4-3.9-5.9-7.6-5.5-7.5-1.4-3.8-0.9-3.4v-4.1l0.4-4 3.1-3.6 3.4-3.3 3.8-0.7h4.1l6 3.2 6.1 3.7 4.8 5.7 4.9 5.8 6.4 6.3 6.4 6 5 3.5 4.9 3.1 5.1 2.6 4.7 2.2 2.7 1.6 2 1.2 1.3 0.7 1.5 0.5 2.9 0.5 3.5 0.2 4.1-0.3 4.3-0.6 4.8-1.3 5.1-1.6 5.5-1.9 5.6-2.1 5.8-2.1 6-2.1 6.1-2.2 6.3-2.3 6.5-2.5 6.6-2.3 6.8-2.1 14-4 6.5-1.9 4.4-1 4.1-1.1 4-0.9 7.2-1.6 3.9-0.6 4.6-0.3 5.7 0.2 6.2 1.3 5.7 2.6 4.4 3.8 2.4 4.7 0.7 5-0.5 5.4-1.4 5.2-1.8 5-2.4 5-2.8 5-3.1 4.9-3 4.4-2.7 3.7-2.5 3.1-2.3 2.9-2.4 2.6-2.3 2.6-2.4 2-2.3 1.9-2.4 2-2.2 2.1-2.3 2.2-2.6 2.1-2.9 2-3.1 1.7-3.2 1.4-2.9 1.2-3 0.8-3 0.3h-3.2l-3.6-0.3-3.9-0.4-3.6-0.4-3-0.3-2.7-0.3-2.6-0.5-3.2-0.3h-3.9l-4.1 0.2-3.2 0.8-2.6 1.6-2.6 2.8-2.4 3.2-0.4 2.5 1.8 1.1 5.4 0.3 4.9 0.1 4.1-0.2 3.4-0.4 3.2-0.4 3.1-0.3 3.1-0.2 3.2-0.3 3.2-0.2 3.1-0.3 2.9-0.2 3.1-0.1 3.2 0.1h3.6l3.7-0.2 3.8-0.3 4-0.4 4.1-0.9 4.2-1.5 4.1-2.2 3.6-2.3 3.4-2.5 3.3-2.8 2.7-2.6 2.6-2.3 2.6-2.9 2.6-3.3 3.4-4.9 3.5-5.2 3.3-5.1 3.3-5.2 3.1-5.2 2.9-5.5 2.6-5.2 2.4-5.1 2.4-4.7 2.6-4.6 2.2-4.5 2.1-4.5 1.6-4.2 1.6-4.3 1-3.9 0.9-3.9 0.4-3.4 0.3-3.4-0.4-5.6-0.6-2.2-0.6-2-0.8-1.3-0.8-1.2-1.4-1.3-1.6-1.2-2.4-1.4-2.5-1.3-3.3-1.3-3.4-1.3-4-1.1-4.1-1.2-4.4-0.9-4.5-1-4.8-0.8-4.7-0.8-4.8-0.8-4.9-0.7-9.6-1.2-5.2-0.3-5.4-0.2-5.4-0.1-5.4-0.3-4.5-0.7-3.3-0.6-2.8-0.5-2.7-0.4-2.6-0.5-2.5-0.6-1.8-1.6-1.5-1.9-1.2-2.3-0.7-2.7-0.2-3.1 0.1-3.2 0.4-3.4 0.5-3.3 0.8-3.2 1-3.4 1.2-3.6 1.5-4 1.7-4.3 1.9-4.4 1.8-4.4 1.8-4.2 1.7-4 1.7-3.7 1.7-3.5 1.8-3.3 2.3-3.3 3.1-3.6 4.9-4.3 6-4.4 6.8-4.1 7-3.7 7.4-2.9 7.3-2.7 7.4-2 7.3-1.7 7.7-1 7.7-0.8 7.9-0.1 7.9 0.2 8 0.9 8.3 1.2 11.3 4.1 10.7 4.6 2.6 6.8 1.6 6.6 0.5 2.6 0.3 2.4 0.5 2.4 0.6 2.5 1.6 5.2 1.1 2.6 1.1 2.7 1.4 2.6 1.5 2.7 1.7 2.6 1.8 2.6 2 2.6 2.1 2.6 2.3 2.5 2.3 2.6 2.7 2.4 2.7 2.3 2.9 2.2 3.2 2.2 9.2 6 2.7 3.1 2.5 3.1 1.7 1.9 1.6 1.9 1.6 1.7 1.6 1.8 1.6 1.7 12.5 12.5 2 2.1 2.1 2.3 2.1 2.5 2.3 2.6 2.5 2.8 2.6 2.7 6.2 5.8 2.8 3.1 1.6 3.1 1.3 3 1 2.9 0.6 2.9 0.4 3 1 5.6 0.6 2.5 0.8 2.1 1 1.8 1.4 1.5 1.7 1.3 2.1 1 2.5 0.6 2.9 0.2 3.1-0.2 2.7-0.7 2.1-1 1.7-1.3 1.5-1.8 1.4-2.3 1.2-3 1.1-3.5 0.7-3.5 0.4-3.1 0.1-2.9-0.2-3-0.4-3.3-0.5-3.6-0.7-4-0.8-4.1-1.2-5.3-1.3-5.5-1.6-6.4-1.6-6.5-1.6-7-1.7-7.1-1.7-7.4-1.7-7.5-1.8-7.9-1.7-7.8-3.4-16.2-1.7-8.2-1.7-8.3-1.9-8-1.9-8.1-2.2-7.7-2.4-7.6-2-7.4-1.6-7.7-0.9-7.9-0.2-7.3 0.4-5.1 1-4.2 1.7-3.9 1.9-3.7 2.1-3.2 1.5-2.9 0.5-2.4-0.5-1.7-1.4-0.7-1.9-0.2-2-0.1-1.9-0.1-2-0.1h-4.1l-2.2 0.1-2.3 0.2-2.4 0.4-2.6 0.5-2.7 0.6-2.9 0.5-3.1 0.4-3.3-0.1-3.7-0.5-4.1-1.2-4.3-1.7-4.5-2.2-4.7-2.5-5.1-2.9-5.4-2.7-6-2.7-5.9-2.8-6.2-2.9-6.4-2.8-7-2.7-7.4-2.3-8.2-2-16.6-4-7.8-2.4-7.9-2.1-7.8-2-7.7-1.6-7.6-1.5-7.5-1-7.8-1-7.9-0.7-8.1-0.6-8-0.2-7.9-0.1-8 0.3-7.9 0.4-8.1 0.7-8 0.8-8.1 1.1-8.1 1.2-15.8 3.2-7.6 1.9-7.6 1.8-14.2 4-6.6 2-6.4 2-5.8 2-5.6 2-4.9 1.9-4.7 1.8-3.7 1.6-3.5 1.6-2.5 1.3-2.5 1.4-3.1 1.8-3.2 1.9-3.5 1.6-3.6 1.5-3.5 1.4-3.7 1.1-3.6 0.9-3.6 0.7-3.5 0.6-3.3 0.5-3.1 0.4-2.9 0.3-3.1 0.6-3.6 1-3.9 1.8-3.9 2.5-3.7 3-3.5 3.4-7.3 7.3-3.4 3-2.9 2.4-2.8 1.9-3 1.9-3.7 2.2-4 2.3-4 2.4-3.8 2.2-4 2.3-5 2.8-6.5 3.4-8.2 4-9.9 4.5-11.1 4.6-11.7 4.7-13.3 4-13.5 3.5-13.7 3.1-13.9 3-14.1 2.3-14.2 2.4-14.2 2.2-14.2 2.3-28 5.2-13.6 3.2-13.5 3.3-12.9 4.1-12.7 4.3-12.1 5.3-11.8 5.6-11 6.9-8.7 6.2-8 5.9-6.6 6.1-5.3 6.4-5 4-5.1 1.1-5.2-0.5-5.2-1.3-5.1-1.6-4.5-1.8-5.4-2.4-6.7-2.2-7-0.5-6.8 0.8-6.7 1.2-6.6 1.5-5.6 1.9-5.3 2.8-7 4.4-9.1 6.3-14.6 10.8-11.2 11.5-10.7 11.7-8.3 12.6-7.9 12.7-6.3 13.6-6 13.8-5.1 14.6-4.9 14.8-9.2 31-5 16.1-5.1 16.2-6.2 16.5-6.5 16.6-8.4 16.6-8.9 16.5-11.4 16.4-11.3 15.8-7.1 10.4-6.7 9.6-7.1 7-6.2 6.1 3.2 0.1 4.7-0.8 10.6-2.9 22.2-6.2 11.5-3.8 15.9-10 15.9-10.9 12.2-13.9 11.6-14.3 8.9-16.8 8.3-17.1 6.3-18.7 6-19 4.6-19.5 4.5-19.5 4-19.2 3.9-19.1 4.5-17.8 4.6-17.6 6.4-15.5 6.8-15.1 11-13.4 9.7-9.7 7.2-5.9 6.7-3.8 6.9-2.3 6.9-0.9 6.5 1.2 5.3 3.4 3.3 6 1.4 8.3-0.3 10.3-2.4 13.5-2.3 11.5-1.4 9.8-0.6 8.9-0.4 8.6 0.3 7.9 0.4 7.8 0.9 7.2 1 7.1 1.4 6.7 1.5 6.8 1.7 6.5 3.6 13.2 1.9 6.6 1.8 6.8 1.8 6.9 1.5 7.2 1.4 7.3 1 7.7 0.8 7.9-0.4 8.7-0.9 8.4-1.5 7.7-2.1 6.9-2.5 6.3-2.7 5.7-2.9 5.2-3.1 4.9-3.3 4.7-3.8 4.7-4.7 5.4-6.4 6.6-7.5 7.6-7.1 7.4-6.5 7.3-5.9 7.3-4.4 6.6-2.6 6.1-1.3 7.4-1.1 8.3-1 9.5-0.8 10-0.6 8.8-0.5 7.3-0.4 6.6-0.6 6.7-0.8 6.7-1.1 7-1.4 7.3-1.7 7.2-1.8 7.1-1.9 6.9-2.7 8.1-2.8 8.5-3.5 10.1-3.9 10.1-4.2 10.5-1.3 5.9-0.8 5.3-0.3 4.7 0.1 4.4 0.1 4.1v3.4l-0.2 3-0.5 2.7-0.7 2.8-0.9 2.9-1.1 2.9-1.3 2.9-1.4 2.7-1.5 2.5-1.6 2.3-1.6 2.1-1.5 1.9-1.5 1.7-1.4 1.5-1.3 1.3-1.2 1.3-1.1 1.1-1 1.2-0.9 1.2-0.9 1.3-0.7 1.5-0.7 1.6-0.4 1.8-0.2 2.1-0.1 2.4 0.1 2.4 0.2 2.3 0.5 2.3 0.7 2.2 0.8 2.2 0.8 1.8 1 1.5 1.1 1 1.2 0.2 1.6-0.6 1.9-1.7 2.2-2.6 2.4-3.2 3.2-5.6 3.4-6.3 3.6-8 3.4-9.4 3.3-9.7 3-10.9 3.1-11.1 2.8-12 2.6-12.2 2.6-12.8 2.7-12.8 2.7-13.2 2.9-13.2 6.6-26.6 4-13.2 4.1-13 5.1-12.7 5.2-12.5 6.4-12.1 7.1-12.1 11.7-14.5 12.4-14.5 13.6-12.2 13.8-11.7 14.5-9.9 14.6-9.6 14.9-8.3 14.9-8 29.2-14.4 14-6.8 13.8-6.7 12.7-6.9 12.5-7 11-7.4 10.7-7.6 9-8.4 8.6-8.7 6.6-9.9 6.2-10.2 4.2-12.3 3.7-12.2 0.6-10.3 0.2-10-0.4-8.4-0.1-7.9 4.5-4.2 4.8-3.6 4.1-1.1 4.1-0.6 4.7 2.1 4.5 2.7 3.1 5.7 2.8 6.3 1.5 9.5 1.2 9.2-0.1 4-0.3 3.7-0.4 3.7-0.5 4-1.1 6.1zm1238.7 31l-4.1-0.2h-6.7l-7.9 0.2-8.5 0.3h-8.8l-8.9-0.2-9.1-0.5-9.1-0.7-9.2-1-9.2-1.2-9.3-1.5-9.2-1.6-18.2-4.2-8.8-2.5-8.8-2.6-8.5-3-8.4-3.2-8-3.5-7.7-3.6-5.7-2.7-5.4-2.5-5.1-1.7-4.7-1.5-1.9-1.1-1.8-0.9-3.3-0.6-3.4-0.3-3.7 1.6-3.9 1.8-4 1.4-4.6 1.2-6.3 0.5-6.7 0.2-6.6-0.6-6.7-0.9-6.6-1.5-6.6-1.6-6.5-1.9-6.4-2-6.3-2.1-6.1-2.1-6-2-5.9-2-5.8-2-6-2-11.8-3.8-6.1-1.9-5.4-1.2-4-0.2-1.9 1.1-0.2 2.1 1.5 2.9 2.7 3.5 3.5 4 3.7 3.9 3.4 3.1 3.2 2.3 3 1.6 2.6 0.7 2.5 0.3 2.3-0.2 2.7-0.4 3-0.5 3.1-0.6 3.3-0.6 3.4-0.6 3.2-0.5 3.1-0.1 3.5 0.1 3.9 0.7 3.9 1.1 3.7 1.6 3.3 1.8 2.5 1.7 2.1 1.4 2 1.6 2.4 2.1 2.7 2.4 2.5 2.5 2.1 2.5 2.1 2.7 2.1 3 1.9 2.8 1.6 2.8 1.5 3.1 1.6 3.5 1.3 3.4 0.9 3.7 0.2 4-0.6 4.1-1.8 3.7-3.1 3.4-3.8 3.2-7 2.6-7.2 2-6.3 1.1-5.8 0.6-5.5 0.2-5.5-0.3-5.3-0.9-5.5-1.2-5.9-0.8-6.7-0.4h-18.9l-4.8-0.1-4.8-0.4-5.2-0.7-5.6-1.1-5.6-1.4-5.6-1.6-5.4-2-5.3-2.5-5.2-2.8-5.3-4.1-5.1-4.5-4.3-6.6-4.2-6.6-3.5-5.6-3.6-5.4-3.5-5.5-3.6-5.4-3.3-5.5-3.4-5.6-3.1-5.5-3.1-5.6-2.8-5.6-2.8-5.5-4.8-11.2-1.9-5.6-1.8-5.6-1.4-5.6-1.2-5.6-0.5-5.7-0.5-5.6 0.4-5.7 0.6-5.6 1.6-5.7 1.8-5.5 3-4.8 3.2-4.7 4-3.9 4.3-3.6 4.6-2.7 4.7-2.6 10-4 5.2-1.5 5.2-1.4 5.2-1.1 5.3-1.1 5.2-1 5.1-0.9 4.8-0.9 4.6-1 4.5-0.8 4.4-0.8 4.6-0.4 4.2-0.3 1.8-0.7 0.7-1.8-0.9-4-1.4-4.7-1.7-4.1-1.8-3.9-2.2-3.4-2.4-3.2-3.1-2.9-3.4-3-4.1-2.6-4.1-2.5-4.6-2.1-4.7-2.1-5.1-1.5-5.3-1.3-5.7-0.8-5.6-0.8-3.1-0.4-2.9-0.4-2.7-0.3-2.9-0.3-3.5 0.8-3.5 1.1-3.9 1.6-3.6 1.9-1.1 4-0.9 4.3-1.2 4.3-1.3 4.2-1.4 4-1.6 3.9-1.9 3.9-2.1 3.7-2.6 3.8-2.8 3.8-3.1 3.8-3.2 3.7-3.4 3.5-3.2 3.3-3.3 3-3.3 2.8-3.5 2.2-3.4 2-3.1 1.8-2.5 1.7-2.1 1.7-1.8 1.8-2.1 2.2-2.7 2.9-3.4 3.7-3.9 4.3-3.9 4.2-3.7 3.8-6.5 6.5-2.5 2.7-2.2 2.6-2.4 2.9-4.5 6-1.4 2.3-1 2.2-0.8 2.5-0.8 2.7-1.1 3-1.2 3.1-1.3 3-1.5 3.1-1.6 3-1.9 2.8-2 2.7-2.3 2.5-2.4 2.5-2.6 2.2-2.7 2.2-3 1.8-3.1 1.8-3.3 1.3-3.4 1.3-3.5 0.8-3.6 0.6-3.7 0.2h-3.8l-3.8-0.4-3.8-0.6-3.8-1.1-3.7-1.2-6.8-3.4-3.1-2.2-2.9-2.3-2.6-2.6-2.4-2.6-2.1-2.9-2-2.9-1.6-3.2-1.5-3.1-1.2-3.2-1.1-3.3-0.7-3.3-0.7-3.4-0.4-3.3-0.3-3.4v-6.8l0.4-3.4 0.3-3.4 0.7-3.1 0.7-3.3 1.2-5 1.3-5.1 1.4-5.6 1.5-5.8 1.5-6.3 1.6-6.4 1.6-6.9 1.7-6.9 3.4-14.8 3.4-15.4 1.7-7.9 3.2-16 1.6-8.1 1.5-8.1 1.4-8.2 1.5-8.1 1.6-7.7 1.6-6.7 1.3-5.8 0.3-5.3-0.9-5.5-1.1-3.9-1.3-2.8-1.5-2.5-1.8-2.5-1.9-2.2-2-2.1-2.2-1.9-4.8-3.8-2.5-2.1-2.3-2.4-1.9-3.1-1.4-3.7-0.8-4.2 1.1-4.9 3.2-5.1 5.2-4.6 6.8-3.5 7-2.2 6-1.2 5.3-0.7 4.6-0.4 4.3-0.2h3.9l3.7 0.1 3.5 0.1 3.2 0.3 3 0.3 2.8 0.4 2.6 0.3 2.4 0.4 2.1 0.4 1.9 0.3 1.8 0.3 1.6 0.2 1.4 0.1 1.5 0.1h1.4l1.5-0.1 3.2-0.4 2.5-0.8 2.8-0.8 3.7-1.5 3.9-1.7 4.8-2.3 5.1-2.4 5.9-2.8 6-2.7 13.4-5.4 7.2-2.6 7.4-2.5 7.9-2.4 8-2.6 8.2-2.7 8.3-2.6 8.6-2.3 8.7-2.2 8.9-1.8 8.9-1.7 18.2-2.4 18.2-1.4 8.8-0.1 8.6-0.1 8.8 0.3 8.7 0.4 8.8 0.7 8.7 0.8 8.7 1.2 8.6 1.3 8.4 1.6 8.5 1.7 8.1 2 8 2 7.6 2.1 7.5 2.1 7 2.1 6.9 2.2 6.3 2.2 6.1 2.1 5.5 2.1 5.3 2.1 9 4 3.5 1.9 3.3 1.8 3.2 1.8 3.1 1.6 3 1.5 3.2 1.3 3.7 1.2 3.8 1 3.3 0.7 2.6 0.4 2.1 0.2 4 0.2 2.1 0.1 2.3 0.2 2.4 0.3 2.7 0.5 2.8 0.7 3 1 3.3 1.5 3.5 2 3.6 2.5 6.8 5.8 3.4 3 3.3 2.9 2.8 2.5 2.4 2 4.2 3.4 2.5 1.9 3.2 2.3 3.6 2.6 3.4 2.4 3 2.1 2.9 1.9 3.4 2.1 4.2 2.5 5.6 2.9 7.1 3.5 8.6 3.8 9.9 4 10.7 3.9 11.2 3.8 12.4 3.2 12.6 3 13.3 2.6 13.8 2.3 14 2.3 14.3 2.3 14.4 2.3 14.5 2.7 14.6 2.8 14.5 3.4 14.5 3.5 14.2 4.6 14.2 4.7 13.8 6.2 13.6 6.4 12.9 8.1 12.6 8.1 10.5 6.7 9.9 5.9 6.4-0.9 5.8-1.5 3.6-0.8 3.3-0.8 7.2-1.2 3.8-0.3 3.8-0.2h4l4 0.2 4.2 0.6 4.1 0.6 8.6 2.4 4.4 1.7 4.4 1.9 4.5 2.4 5.6 3.3 15.8 11.3 16.4 12.2 13.2 13.6 12.6 13.8 9.7 14.6 9.2 14.8 7.1 15.3 6.8 15.4 5.4 15.6 5.3 15.7 4.6 15.7 4.7 15.7 4.8 15.6 4.9 15.5 5.7 15.3 6 15.3 7.6 15 7.9 14.9 10.1 14.5 9.8 13.5 4.1 4.5 6.9 7 10.6 10.6 3.6 3.8 4.1 4.2 4.7 4.5 5.5 4.3 6.3 4.1 6.9 4.1 6.9 4.8 5.7 5.8 2.9 6.7-1 6.4-5.6 5.1-8.8 3.5-10.5 1.9-10.9 0.9-10.5 0.4-9.6 0.3-9.4-0.3-10.7-1.1-24.8-6.9-25.7-7.9-20.6-12.5-19.5-13.4-14.9-16.8-14.1-17.3-10.3-19.3-9.6-19.7-7-20.5-6.5-20.5-4.9-20.4-4.6-20.3-4-19.1-3.1-14.6-2.7-11.4-2.2-9-2.2-7.9-2.4-6.9-2.7-6-2.8-5.2-2.6-4.1-1.9-2.2-0.8 0.2-0.1 1.7 0.2 2.6 0.1 3-0.2 3.7-0.4 4.5-0.5 5.6-0.5 9-0.4 9.2-1.1 8.5-1.2 8.3-1.6 7.7-1.6 7.6-1.9 7.1-1.9 7-1.9 6.6-1.8 6.5-1.7 6.4-1.6 6.2-2.6 12.4-0.5 6.2-0.3 6v5.7l0.4 5.4 1 5 1.8 5.1 2.6 5.4 3.6 6.1 4.7 6.7 5.8 7.3 7.1 7.9 8.1 8.8 8.2 8.8 7.1 8 5.4 6.8 4.1 6.4 3.3 6.7 2.7 7.7 2.1 8.5 1.4 9 1.2 8.7 0.8 8.4 0.7 8.2 0.5 8 0.4 7.4 0.5 7.2 0.7 7.4 0.9 6.8 1.2 6.5 1.5 6.8 1.8 6.9 1.3 6.9 1.5 8 0.8 4.7 0.8 4.5 1.2 5.3 1.4 5.1 2 5.2 2.2 5.3 2.9 6.7 3.3 6.2 4.2 4.5 1.7 2.8 1.3 3.1 0.6 3.1 0.1 2.8-0.2 2.5-0.3 2.7-0.4 2.8-0.3 2.5v2.3l0.1 2.6 0.5 2.6 0.6 2 0.6 1.5 0.9 1.4 1.3 1.7 1.6 2 1.6 1.8 1.4 1.7 1.4 1.5 1.3 1.6 1.3 1.8 1.3 1.9 1.4 2.2 1.3 2.3 1.4 2.6 1.4 2.7 1.3 3.2 1 3.3 0.3 3.8-0.2 4.8-1.2 7.3-2.4 9.6-3.6 10-4.6 9.6-5.5 8-6.1 6.2-5.6 3.7-4.8 1.6-4.4 0.4-4.7-2.2-5.2-3.5-5.2-4.2-4.7-4.7-4-5.1-3.6-5.2-3.3-5.7-3.5-6.6-3.8-7.7-4.3-9.9-3.8-10.8-4.1-10.8-3.7-11.5-3.7-11.7-3.3-12.3-2.9-12.4-2.6-12.9-2.7-12.8-2.7-12.9-2.8-12.9-3.1-12.7-3.1-12.6-3.7-12.1-3.8-12.1-4.5-11.3-4.6-11.1-5.3-10-5.9-10.2-10.1-12.4-10.7-12.5-12-10.7-12.1-10.3-13.2-9-13.3-8.7-14-7.7-14-7.6-14.3-7.1-14.4-7-14.2-6.9-14.2-7-13.6-7.4-13.5-7.5-12.7-8.6-12.4-8.9-11-10.4-10.3-10.4-4.9-7.3-3.7-5.5-2.3-2.6zm-16.7-36.8l-1-6.1-0.5-4-0.5-3.7-0.2-3.6-0.2-4.1 1.3-9.2 1.5-9.4 2.7-6.4 3.1-5.7 4.6-2.7 4.6-2.1 4.1 0.6 4.1 1.1 4.8 3.6 4.5 4.2v7.9l-0.5 8.4 0.3 10 0.6 10.3 3.6 12.2 4.2 12.3 6.3 10.2 6.6 9.9 8.6 8.7 8.9 8.4 10.7 7.6 11 7.4 12.5 7 12.7 6.9 13.8 6.7 14 6.8 14.6 7.2 14.7 7.2 14.8 8.1 14.9 8.2 14.6 9.6 14.5 9.9 13.8 11.7 13.6 12.2 12.4 14.5 11.8 14.5 7 12.1 6.5 12.1 5.2 12.5 5 12.7 4.1 13.1 4 13.1 3.4 13.3 3.2 13.3 2.9 13.2 2.8 13.2 2.6 12.9 2.6 12.7 2.6 12.2 2.8 12 3.1 11.1 3.1 10.9 3.3 9.7 3.3 9.4 3.6 8 3.4 6.3 3.2 5.6 2.5 3.2 2.2 2.6 1.9 1.7 1.5 0.6 1.3-0.2 1-1 1-1.5 0.9-1.8 0.8-2.2 0.6-2.2 0.5-2.3 0.3-2.3 0.1-2.4-0.1-2.4-0.3-2.1-0.4-1.8-0.6-1.6-0.8-1.5-0.9-1.3-0.9-1.2-1-1.2-1.1-1.1-1.1-1.3-1.3-1.3-1.4-1.5-1.5-1.7-1.6-1.9-1.6-2.1-1.5-2.3-1.6-2.5-1.4-2.7-1.3-2.9-1.1-2.9-0.9-2.9-0.7-2.8-0.4-2.7-0.3-3v-3.4l0.1-4.1 0.1-4.4-0.3-4.7-0.8-5.3-1.2-5.9-4.3-10.5-3.9-10.1-3.5-10.1-2.7-8.5-2.7-8.1-2-6.9-1.8-7.1-1.6-7.2-1.5-7.3-1.1-7-0.8-6.7-0.5-6.7-0.5-6.6-0.5-7.3-0.6-8.8-0.8-10-1-9.5-1.1-8.3-1.2-7.4-2.7-6.1-4.4-6.6-5.9-7.3-6.5-7.3-7.1-7.4-7.5-7.6-6.3-6.6-4.8-5.4-3.7-4.7-3.4-4.7-3.1-4.9-2.9-5.2-2.7-5.7-2.5-6.3-2-6.9-1.5-7.7-0.9-8.4-0.5-8.7 0.9-7.9 0.9-7.7 1.4-7.3 1.5-7.2 1.8-6.9 1.8-6.8 3.8-13.2 1.7-6.6 1.8-6.5 1.4-6.8 1.4-6.7 1.1-7.1 0.9-7.2 0.4-7.8 0.2-7.9-0.4-8.6-0.6-8.9-1.4-9.8-2.3-11.5-2.3-13.5-0.3-10.3 1.3-8.3 3.3-6 5.3-3.4 6.5-1.2 7 0.9 6.8 2.3 6.7 3.8 7.3 5.9 9.7 9.7 10.9 13.4 6.9 15.1 6.3 15.5 4.7 17.6 4.4 17.8 4 19.1 4 19.2 4.4 19.5 4.7 19.5 5.9 19 6.3 18.7 8.4 17.1 8.8 16.8 11.6 14.3 12.2 13.9 16 10.9 15.8 10 11.5 3.8 22.3 6.2 10.5 2.9 4.8 0.8 3.2-0.1-6.2-6.1-7.1-7-6.8-9.6-7.1-10.4-11.2-15.8-11.5-16.3-8.8-16.6-8.4-16.6-6.6-16.6-6.2-16.5-5.1-16.2-5-16.1-9.2-31-4.9-14.8-5-14.6-6.1-13.8-6.3-13.6-7.9-12.7-8.3-12.6-10.7-11.7-11.2-11.5-14.5-10.8-9.2-6.3-6.9-4.4-5.4-2.8-5.6-1.9-6.5-1.5-6.7-1.2-6.9-0.8-6.9 0.5-6.7 2.2-5.4 2.4-4.5 1.8-5.1 1.6-5.3 1.3-5.1 0.5-5.1-1.1-5.1-4-5.2-6.4-6.7-6.1-7.9-5.9-8.8-6.2-10.9-6.9-11.9-5.6-12-5.3-12.8-4.3-12.9-4.1-13.5-3.3-13.6-3.2-13.9-2.6-14-2.6-14.2-2.3-14.2-2.2-14.2-2.4-14.2-2.3-13.8-3-13.8-3.1-13.5-3.5-13.2-3.9-11.8-4.8-11.1-4.6-9.8-4.4-8.2-4.1-6.5-3.4-5-2.8-4.1-2.3-3.8-2.2-3.9-2.4-4.1-2.3-3.6-2.2-3.1-1.9-2.8-1.9-2.9-2.4-3.3-3-3.7-3.6-3.6-3.7-3.6-3.4-3.7-3-3.9-2.5-3.9-1.8-3.5-1-3.1-0.6-3-0.3-3.1-0.4-3.3-0.5-3.4-0.6-3.7-0.7-3.6-0.9-3.6-1.1-3.6-1.4-3.6-1.5-3.5-1.6-3.2-1.9-3.1-1.8-2.5-1.4-2.5-1.3-3.5-1.6-3.7-1.6-4.7-1.8-4.8-1.9-5.7-2-5.8-2-6.4-2-6.6-2-7-2-7.2-2-7.6-1.8-7.6-1.9-15.8-3.2-8.1-1.2-8-1.1-8.1-0.8-8-0.7-8-0.4-7.9-0.3-7.9 0.1-8 0.2-8.1 0.6-8 0.7-7.7 1-7.6 1-7.5 1.5-7.7 1.6-7.9 2-7.9 2.1-7.8 2.4-16.6 4-8.2 2-7.4 2.3-6.9 2.7-6.4 2.8-6.3 2.9-5.9 2.8-5.9 2.7-5.4 2.7-5.2 2.9-4.6 2.5-4.6 2.2-4.3 1.7-4.1 1.2-3.6 0.6h-3.4l-3.1-0.4-2.9-0.5-2.7-0.6-2.5-0.5-2.5-0.4-2.3-0.2-2.2-0.1h-4.1l-1.9 0.1-2 0.1-1.9 0.1-1.9 0.2-1.5 0.8-0.5 1.6 0.5 2.4 1.6 2.9 2 3.2 2 3.7 1.6 3.9 1 4.2 0.5 5.1-0.3 7.3-0.9 7.9-1.5 7.7-2 7.5-2.4 7.5-2.3 7.7-3.8 16.2-1.7 8.2-1.6 8.2-3.4 16.2-1.8 7.9-1.7 7.8-1.7 7.5-1.8 7.4-1.6 7.1-1.7 7-1.6 6.5-1.6 6.4-1.2 5.5-1.2 5.3-0.8 4.1-0.7 4-0.6 3.6-0.4 3.3-0.1 3v2.9l0.4 3.1 0.8 3.5 1 3.5 1.3 3 1.3 2.3 1.5 1.8 1.7 1.3 2.2 1 2.7 0.7 3 0.3 2.9-0.2 2.6-0.7 2.1-1 1.7-1.3 1.3-1.5 1.1-1.8 0.8-2.1 0.6-2.5 0.5-2.8 0.4-2.8 0.4-3 0.7-2.9 0.9-2.9 1.3-3 1.6-3 2.9-3.2 3.1-2.9 3-2.9 2.7-2.7 2.5-2.8 2.2-2.6 2.2-2.5 2-2.3 2-2.1 7.4-7.4 1.8-1.7 1.7-1.7 1.6-1.7 1.7-1.7 1.6-1.8 1.6-1.7 1.5-1.9 1.7-1.9 2.5-3 2.8-3.2 9.2-6 3.1-2.2 3-2.2 2.7-2.3 2.6-2.4 2.4-2.6 2.3-2.5 2-2.6 2.1-2.6 1.7-2.6 1.8-2.6 1.4-2.7 1.4-2.6 1.1-2.7 1.1-2.6 1.6-5.2 0.6-2.5 0.5-2.4 0.4-2.3 0.4-2.7 1.6-6.6 2.6-6.8 10.8-4.6 11.2-4.1 8.3-1.2 8-0.9 7.9-0.2 7.9 0.1 7.7 0.8 7.7 1 7.4 1.8 7.3 1.9 7.4 2.7 7.3 2.9 7.1 3.8 6.7 4 6 4.4 4.9 4.3 3.2 3.6 2.2 3.3 1.9 3.3 1.7 3.5 1.7 3.7 1.7 4 1.8 4.2 3.6 8.8 1.7 4.3 1.5 4 1.3 3.6 1 3.4 0.7 3.2 0.6 3.3 0.3 3.4 0.2 3.2-0.3 3.1-0.7 2.7-1.2 2.3-1.5 1.9-1.8 1.6-2.5 0.6-2.6 0.5-2.6 0.4-2.8 0.5-3.4 0.6-4.5 0.7-5.3 0.3-5.5 0.1-5.3 0.2-5.3 0.3-4.8 0.6-4.8 0.7-4.8 0.6-9.6 1.6-4.7 0.8-4.5 1-4.5 0.9-4.1 1.2-4 1.1-3.4 1.3-3.2 1.3-2.6 1.3-2.4 1.4-1.5 1.2-1.4 1.3-0.9 1.2-0.7 1.3-0.7 2-0.5 2.2-0.3 2.8-0.1 2.8 0.2 3.4 0.4 3.4 0.9 3.9 1.1 3.9 1.5 4.3 1.7 4.2 4.2 9 2.7 4.6 2.3 4.7 2.4 5.1 2.6 5.2 2.9 5.5 3.1 5.2 3.3 5.2 3.4 5.1 3.4 5.2 3.4 4.9 2.7 3.3 2.6 2.9 2.5 2.3 2.7 2.6 3.4 2.8 3.3 2.5 3.7 2.3 4.1 2.2 4.1 1.5 4.1 0.9 4 0.4 3.9 0.3 3.6 0.2h3.6l3.3-0.1 3 0.1 2.9 0.2 3.1 0.3 3.2 0.2 3.2 0.3 3.2 0.2 3 0.3 3.2 0.4 3.4 0.4 4.1 0.2 4.9-0.1 5.4-0.3 1.9-1.1-0.5-2.4-2.4-3.3-2.5-2.7-2.7-1.7-3.1-0.8-4.2-0.2h-3.8l-3.2 0.3-2.7 0.5-2.6 0.3-3.1 0.3-3.6 0.4-3.8 0.4-3.7 0.3h-3.2l-3-0.3-2.9-0.7-3-1.3-3.1-1.4-3.1-1.7-2.9-2-2.7-2.1-2.2-2.2-2.3-2.1-2.3-2-2.4-1.9-2.4-2-4.6-5.2-2.4-2.9-2.4-3.1-2.7-3.6-3-4.5-3.2-4.9-2.8-5-2.3-5-1.9-5-1.3-5.2-0.6-5.4 0.7-5 2.5-4.7 4.3-3.8 5.8-2.6 6.2-1.3 5.6-0.2 4.6 0.3 3.9 0.6 3.6 0.8 3.7 0.8 3.9 0.9 4.2 1.1 4.3 1 6.5 1.9 7.1 2 6.9 2 6.8 2.1 6.6 2.3 6.5 2.5 6.3 2.3 6.2 2.2 11.8 4.2 5.6 2.1 5.4 1.9 5.1 1.6 4.8 1.3 4.4 0.6 4 0.3 3.5-0.2 2.9-0.5 1.5-0.5 1.4-0.7 1.9-1.2 2.8-1.6 4.6-2.2 5.1-2.5 5-3.2 5-3.5 6.4-6 6.3-6.3 4.9-5.8 4.9-5.7 6-3.7 6-3.2h4.1l3.9 0.7 3.4 3.3 3.1 3.6 0.3 4v4.1l-0.9 3.4-1.3 3.8-5.6 7.5-5.8 7.6-4.5 3.9-3.4 3.5 5.1 3.5 6.1 3.3 6.7 3.2 6.8 3 7.4 2.7 7.5 2.7 7.9 2.4 7.9 2.2 16.6 3.8 8.4 1.5 8.4 1.4 8.5 1 8.4 1 8.4 0.6 8.3 0.5 8 0.1 7.9 0.1 6.2-0.4 5.4-1z"/></svg>